# xmcd CD database file
#
# Track frame offsets:
#	150
#	13270
#	27095
#	43215
#	57295
#	77920
#	92342
#	105157
#	118130
#	129545
#	139075
#	149870
#	163742
#	176795
#	194020
#	212000
#
# Disc length: 3062 seconds
#
# Revision: 0
# Processed by: cddbd v1.4PL0 Copyright (c) Steve Scherf et al.
# Submitted via: CDex 1.40Release
#
DISCID=ec0bf410
DTITLE=37: Wilson Pickett - In The Midnight Hour
DYEAR=1900
DGENRE=Country
TTITLE0=I'm Gonna Love You
TTITLE1=It's Too Late
TTITLE2=Baby, Don't I Weep
TTITLE3=If You Need Me
TTITLE4=Precious, Precious
TTITLE5=I Can't Stop
TTITLE6=Baby, Call On Me
TTITLE7=Give Your Lovin' Right Now
TTITLE8=In The Midnight Hour
TTITLE9=Don't Fight It (Feel It)
TTITLE10=Land Of 1000 Dances
TTITLE11=Mustang Sally
TTITLE12=634-5789
TTITLE13=Peace Breaker
TTITLE14=I'll Never Be The Same
TTITLE15=Down To My Last Heartbreak
EXTD=ID3G: 2
EXTT0=
EXTT1=
EXTT2=
EXTT3=
EXTT4=
EXTT5=
EXTT6=
EXTT7=
EXTT8=
EXTT9=
EXTT10=
EXTT11=
EXTT12=
EXTT13=
EXTT14=
EXTT15=
PLAYORDER=
